<?xml version="1.0" encoding="UTF-8" standalone="no"?>
<!-- Generator: Adobe Illustrator 17.0.1, SVG Export Plug-In . SVG Version: 6.00 Build 0)  -->

<svg
   xmlns:dc="http://purl.org/dc/elements/1.1/"
   xmlns:cc="http://creativecommons.org/ns#"
   xmlns:rdf="http://www.w3.org/1999/02/22-rdf-syntax-ns#"
   xmlns:svg="http://www.w3.org/2000/svg"
   xmlns="http://www.w3.org/2000/svg"
   xmlns:sodipodi="http://sodipodi.sourceforge.net/DTD/sodipodi-0.dtd"
   xmlns:inkscape="http://www.inkscape.org/namespaces/inkscape"
   version="1.1"
   id="Layer_1"
   x="0px"
   y="0px"
   width="64px"
   height="64px"
   viewBox="0 0 64 64"
   style="enable-background:new 0 0 64 64;"
   xml:space="preserve"
   inkscape:version="0.91 r13725"
   sodipodi:docname="settingsButton_video_resolution.svg"><metadata
     id="metadata23"><rdf:RDF><cc:Work
         rdf:about=""><dc:format>image/svg+xml</dc:format><dc:type
           rdf:resource="http://purl.org/dc/dcmitype/StillImage" /><dc:title></dc:title></cc:Work></rdf:RDF></metadata><defs
     id="defs21" /><sodipodi:namedview
     pagecolor="#929292"
     bordercolor="#666666"
     borderopacity="1"
     objecttolerance="10"
     gridtolerance="10"
     guidetolerance="10"
     inkscape:pageopacity="0"
     inkscape:pageshadow="2"
     inkscape:window-width="959"
     inkscape:window-height="1028"
     id="namedview19"
     showgrid="false"
     inkscape:zoom="3.6875"
     inkscape:cx="30.806564"
     inkscape:cy="6.0990043"
     inkscape:window-x="3520"
     inkscape:window-y="0"
     inkscape:window-maximized="0"
     inkscape:current-layer="Layer_1" /><path
     inkscape:connector-curvature="0"
     id="path11"
     d="m 53.865,50 -44,0 c -1.654,0 -3,-1.346 -3,-3 l 0,-30 c 0,-1.654 1.346,-3 3,-3 l 44,0 c 1.654,0 3,1.346 3,3 l 0,30 c 0,1.654 -1.345,3 -3,3 z m -44,-34 c -0.551,0 -1,0.449 -1,1 l 0,30 c 0,0.552 0.449,1 1,1 l 44,0 c 0.552,0 1,-0.448 1,-1 l 0,-30 c 0,-0.551 -0.448,-1 -1,-1 l -44,0 z"
     style="fill:#ffffff" /><path
     inkscape:connector-curvature="0"
     id="path11-3"
     d="M 39.348992,50 8.9384464,50 C 7.7952863,50 6.865,49.069714 6.865,47.926554 l 0,-20.734464 c 0,-1.143159 0.9302863,-2.073446 2.0734464,-2.073446 l 30.4105456,0 c 1.143161,0 2.073447,0.930287 2.073447,2.073446 l 0,20.734464 C 41.422439,49.069714 40.492844,50 39.348992,50 Z M 8.9384464,26.500942 c -0.380823,0 -0.6911488,0.310325 -0.6911488,0.691148 l 0,20.734464 c 0,0.381514 0.3103258,0.691148 0.6911488,0.691148 l 30.4105456,0 c 0.381515,0 0.69115,-0.309634 0.69115,-0.691148 l 0,-20.734464 c 0,-0.380823 -0.309635,-0.691148 -0.69115,-0.691148 l -30.4105456,0 z"
     style="fill:#ffffff" /><path
     inkscape:connector-curvature="0"
     id="path11-6"
     d="M 29.223192,50 8.2921187,50 C 7.5053006,50 6.865,49.3597 6.865,48.572881 l 0,-14.271186 c 0,-0.786818 0.6403006,-1.427119 1.4271187,-1.427119 l 20.9310733,0 c 0.786818,0 1.427119,0.640301 1.427119,1.427119 l 0,14.271186 C 30.650311,49.3597 30.010486,50 29.223192,50 Z M 8.2921187,33.825989 c -0.2621142,0 -0.4757063,0.213592 -0.4757063,0.475706 l 0,14.271186 c 0,0.26259 0.2135921,0.475706 0.4757063,0.475706 l 20.9310733,0 c 0.26259,0 0.475706,-0.213116 0.475706,-0.475706 l 0,-14.271186 c 0,-0.262114 -0.213116,-0.475706 -0.475706,-0.475706 l -20.9310733,0 z"
     style="fill:#ffffff" /></svg>