<?xml version="1.0" encoding="UTF-8" standalone="no"?>
<!-- Generator: Adobe Illustrator 17.0.1, SVG Export Plug-In . SVG Version: 6.00 Build 0)  -->

<svg
   xmlns:dc="http://purl.org/dc/elements/1.1/"
   xmlns:cc="http://creativecommons.org/ns#"
   xmlns:rdf="http://www.w3.org/1999/02/22-rdf-syntax-ns#"
   xmlns:svg="http://www.w3.org/2000/svg"
   xmlns="http://www.w3.org/2000/svg"
   xmlns:sodipodi="http://sodipodi.sourceforge.net/DTD/sodipodi-0.dtd"
   xmlns:inkscape="http://www.inkscape.org/namespaces/inkscape"
   version="1.1"
   id="Layer_1"
   x="0px"
   y="0px"
   width="64px"
   height="64px"
   viewBox="0 0 64 64"
   style="enable-background:new 0 0 64 64;"
   xml:space="preserve"
   sodipodi:docname="icon-m-burst.svg"
   inkscape:version="0.92.3 (2405546, 2018-03-11)"><metadata
   id="metadata15"><rdf:RDF><cc:Work
       rdf:about=""><dc:format>image/svg+xml</dc:format><dc:type
         rdf:resource="http://purl.org/dc/dcmitype/StillImage" /><dc:title></dc:title></cc:Work></rdf:RDF></metadata><defs
   id="defs13">
	
	
	

		
	</defs><sodipodi:namedview
   pagecolor="#ffffff"
   bordercolor="#666666"
   borderopacity="1"
   objecttolerance="10"
   gridtolerance="10"
   guidetolerance="10"
   inkscape:pageopacity="0"
   inkscape:pageshadow="2"
   inkscape:window-width="1278"
   inkscape:window-height="756"
   id="namedview11"
   showgrid="false"
   inkscape:pagecheckerboard="true"
   inkscape:zoom="5.6568543"
   inkscape:cx="30.804196"
   inkscape:cy="27.575464"
   inkscape:window-x="0"
   inkscape:window-y="28"
   inkscape:window-maximized="0"
   inkscape:current-layer="Layer_1" />

<path
   style="fill:#ffffff;stroke-width:1.04265547"
   d="m 22.578044,50.749031 h 31.355779 c 1.694315,0 3.071663,-1.37839 3.071663,-3.071663 V 24.663876 c 0,-1.694315 -1.377348,-3.071663 -3.071663,-3.071663 H 22.578044 c -1.693272,0 -3.071663,1.377348 -3.071663,3.071663 v 23.013492 c 0,1.693273 1.378391,3.071663 3.071663,3.071663 z M 53.933823,23.639988 c 0.565119,0 1.023888,0.458769 1.023888,1.023888 v 23.013492 c 0,0.564077 -0.458769,1.022845 -1.023888,1.022845 H 22.578044 c -0.564076,0 -1.022845,-0.458768 -1.022845,-1.022845 V 24.663876 c 0,-0.565119 0.458769,-1.023888 1.022845,-1.023888 z"
   id="path5"
   inkscape:connector-curvature="0" /><path
   style="opacity:0.85;fill:#ffffff;stroke-width:1.04265547"
   d="m 20.443782,44.529591 h -4.121671 c -0.564076,0 -1.022845,-0.458768 -1.022845,-1.022845 V 20.493254 c 0,-0.565119 0.458769,-1.023888 1.022845,-1.023888 H 47.67789 c 0.56512,0 1.023888,0.458769 1.023888,1.023888 v 1.840093 l 2.047775,-0.07069 v -1.769401 c 0,-1.694315 -1.377348,-3.071663 -3.071663,-3.071663 H 16.322111 c -1.693272,0 -3.071663,1.377348 -3.071663,3.071663 v 23.013492 c 0,1.693273 1.378391,3.071663 3.071663,3.071663 h 4.121671 z"
   id="path5-6"
   inkscape:connector-curvature="0"
   sodipodi:nodetypes="cssssssccsssssscc" /><path
   style="opacity:0.7;fill:#ffffff;stroke-width:1.04265547"
   d="m 13.250776,40.358969 h -3.184598 c -0.5640763,0 -1.0228453,-0.458768 -1.0228453,-1.022845 V 16.322632 c 0,-0.565119 0.458769,-1.023888 1.0228453,-1.023888 h 31.355779 c 0.56512,0 1.023888,0.458769 1.023888,1.023888 v 1.102564 h 2.047775 v -1.102564 c 0,-1.694315 -1.377348,-3.071663 -3.071663,-3.071663 H 10.066178 c -1.6932723,0 -3.0716633,1.377348 -3.0716633,3.071663 v 23.013492 c 0,1.693273 1.378391,3.071663 3.0716633,3.071663 h 3.184598 z"
   id="path5-6-7"
   inkscape:connector-curvature="0"
   sodipodi:nodetypes="cssssssccsssssscc" /></svg>